<svg width="46" height="46" viewBox="0 0 46 46" fill="none" xmlns="http://www.w3.org/2000/svg">
    <path d="M30.1875 20.125V11.5C30.1875 7.53045 26.9695 4.3125 23 4.3125C19.0304 4.3125 15.8125 7.53045 15.8125 11.5V20.125M37.5782 16.3055L39.9993 39.3055C40.1333 40.5787 39.135 41.6875 37.8549 41.6875H8.14513C6.86496 41.6875 5.86671 40.5787 6.00073 39.3055L8.42178 16.3055C8.5373 15.2081 9.4627 14.375 10.5662 14.375H35.4338C36.5373 14.375 37.4627 15.2081 37.5782 16.3055ZM16.5312 20.125C16.5312 20.522 16.2094 20.8438 15.8125 20.8438C15.4155 20.8438 15.0937 20.522 15.0937 20.125C15.0937 19.728 15.4155 19.4062 15.8125 19.4062C16.2094 19.4062 16.5312 19.728 16.5312 20.125ZM30.9062 20.125C30.9062 20.522 30.5844 20.8438 30.1875 20.8438C29.7905 20.8438 29.4687 20.522 29.4687 20.125C29.4687 19.728 29.7905 19.4062 30.1875 19.4062C30.5844 19.4062 30.9062 19.728 30.9062 20.125Z" stroke="#0F172A" stroke-width="1.5" stroke-linecap="round" stroke-linejoin="round"/>
</svg>
